<?xml version="1.0" encoding="UTF-8"?><svg id="a" xmlns="http://www.w3.org/2000/svg" viewBox="0 0 155.7 109.2"><defs><style>.b{fill:#0d9dda;}</style></defs><path class="b" d="M64.9,11.9c5.2-5.4,12.3-8.5,19.8-8.5,10,0,19.2,5.5,24.1,14.3,4.3-1.9,8.9-2.9,13.6-2.9,18.7,.3,33.7,15.8,33.3,34.5-.3,18.3-15.1,33-33.3,33.3-2.2,0-4.4-.2-6.6-.7-6.4,11.4-20.5,15.8-32.2,10.1-6,14.3-22.4,21-36.7,15-7.2-3-12.8-8.9-15.5-16.2-14.3,2.8-28.1-6.5-30.9-20.8-2.2-11,2.9-22.1,12.5-27.8-6.6-15.4,.5-33.2,15.8-39.8,12.8-5.5,27.6-1.6,36,9.4"/></svg>